<svg id="Layer_1" data-name="Layer 1" xmlns="http://www.w3.org/2000/svg" viewBox="0 0 559.43 525.03"><defs><style>.cls-1{fill:#68c5ac;}.cls-2{fill:#fefaed;}</style></defs><rect class="cls-1" x="11.58" y="13.78" width="536.27" height="497.47" rx="12"/><path class="cls-2" d="M491,55q-39,1.95-80,42.85T334.53,201.71q-14.64-.68-24.49-.18-26.76,1.33-48.44,10.2t-33.46,22.62q-11.79,13.78-11,29.74.66,13.16,9,19.79t21.48,6q11.27-.57,18.53-5.88T273,270.23a23.73,23.73,0,0,0-2.61-9.76c-1.56-3.05-3-4.56-4.22-4.49q3.63-11.94,17-18.27t36.73-8.91q-10.06,19.6-18.61,39.06h0C284.68,293,248.57,338.57,200.44,371.13c-8.1,5.48-18.39,12.35-28.43,19a117.83,117.83,0,0,1-15.28,7.09q-14.86,5.67-27.76,5.41Q100.4,402,101.08,369q.06-3.19,1.16-11.93a141.75,141.75,0,0,0,52.33-11.87q24.65-10.86,39.77-29.26t15.58-40.71Q210.7,237,160,236q-43.31-.88-71.9,22.63t-41.71,56.3q-13.12,32.81-13.68,60.26-.66,32.64,17.91,48.36t52.22,16.39a131.66,131.66,0,0,0,16.14-.61h0c64.85.18,123.41-67.29,158-107.26q-.92,2.91-1.8,5.84-16.35,54-14.77,85.46,1.13,22.54,11.3,32.86a41.77,41.77,0,0,0,23.46,12.47A147,147,0,0,0,325.89,470q-7-8.12-7.9-26-1.82-36.17,12.29-97.35a801.63,801.63,0,0,1,38-120.29A188.22,188.22,0,0,1,399.49,230,194.33,194.33,0,0,1,432,240.11L404.42,412.36,472,409,528.38,59.7Q513.49,53.85,491,55ZM130.74,281.79q16.41-24.94,32.54-24.62,11.5.22,11.18,16.55a57.55,57.55,0,0,1-10.08,31.06,76.82,76.82,0,0,1-25.38,24A64.34,64.34,0,0,1,105.86,338,193.55,193.55,0,0,1,130.74,281.79ZM435.2,219.24q-24-8.69-58.11-13.55,18.56-42.83,38.92-73.27t40-42.26Z"/></svg>